
<svg width="17" height="17" viewBox="0 0 17 17" fill="none" xmlns="http://www.w3.org/2000/svg">
<path d="M14.467 13.0666H3.13371C2.76704 13.0666 2.46704 13.3666 2.46704 13.7333C2.46704 14.1 2.76704 14.4 3.13371 14.4H14.467C14.8337 14.4 15.1337 14.1 15.1337 13.7333C15.1337 13.3666 14.8337 13.0666 14.467 13.0666ZM3.14037 8.13997L13.6937 10.9666C14.227 11.1066 14.7737 10.7933 14.9204 10.26C15.0604 9.72664 14.747 9.17998 14.2137 9.03331L10.6737 8.08664L8.95371 2.45331C8.91845 2.33646 8.85406 2.23049 8.7666 2.14536C8.67914 2.06023 8.57147 1.99873 8.45371 1.96664C8.00037 1.84664 7.55371 2.18664 7.55371 2.65998V7.24664L4.23371 6.36664L3.73371 5.12664C3.69522 5.03071 3.63475 4.94514 3.55717 4.87683C3.4796 4.80851 3.38707 4.75936 3.28704 4.73331L3.06704 4.67331C3.01775 4.65933 2.96588 4.65703 2.91555 4.66657C2.86521 4.67612 2.81779 4.69725 2.77704 4.7283C2.73628 4.75935 2.70332 4.79946 2.68076 4.84546C2.65819 4.89146 2.64665 4.94208 2.64704 4.99331V7.49331C2.64704 7.79998 2.84704 8.05997 3.14037 8.13997Z" fill="#B61032"/>
</svg>